<?xml version="1.0" encoding="UTF-8"?>
<svg width="16px" height="19px" viewBox="0 0 16 19" version="1.1" xmlns="http://www.w3.org/2000/svg" xmlns:xlink="http://www.w3.org/1999/xlink">
    <!-- Generator: Sketch 52.2 (67145) - http://www.bohemiancoding.com/sketch -->
    <title>Group</title>
    <desc>Created with Sketch.</desc>
    <g id="Symbols" stroke="none" stroke-width="1" fill="none" fill-rule="evenodd">
        <g id="Movie---Header" transform="translate(-1325.000000, -17.000000)" fill="#FFFFFF" fill-rule="nonzero">
            <g id="Group-4">
                <g id="Group" transform="translate(1325.000000, 17.000000)">
                    <path d="M7.16471477,1.5021491 C7.13854719,1.6635556 7.01748873,1.79586858 6.85412707,1.84161017 C4.68531373,2.44888192 3.04895972,4.32481233 2.87211218,6.46806272 L2.51282011,10.8223944 C2.47089597,11.3304814 2.22137348,12.0618887 1.94129932,12.497052 L1.13658721,13.7473681 C0.58793058,14.5998397 0.912533095,15.1578947 1.95840811,15.1578947 L14.0412647,15.1578947 C15.0878129,15.1578947 15.4121955,14.600544 14.8630856,13.7473681 L14.0583735,12.497052 C13.7777663,12.0610605 13.5288767,11.3316914 13.4868527,10.8223944 L13.1275606,6.46806272 C12.9506834,4.32445292 11.315269,2.44932009 9.14680959,1.84186349 C8.98343903,1.79609803 8.86239153,1.66374905 8.83626063,1.50232042 C8.77559714,1.12756015 8.42273642,0.842105263 8.00047382,0.842105263 C7.57828171,0.842105263 7.22545904,1.12746719 7.16471477,1.5021491 Z M8.00047382,0 C8.75302775,1.8698493e-16 9.40531072,0.456758745 9.63502582,1.10653282 C12.0269145,1.87845907 13.8027164,3.98547431 14.0020774,6.40156993 L14.3613695,10.7559016 C14.3923811,11.1317379 14.5972788,11.7321887 14.8046838,12.0544428 L15.6093959,13.3047589 C16.5197939,14.7192837 15.7744067,16 14.0412647,16 L1.95840811,16 C0.225816368,16 -0.519602979,14.7184787 0.390276897,13.3047589 L1.19498901,12.0544428 C1.40184932,11.733035 1.60738973,11.1305492 1.63830329,10.7559016 L1.99759536,6.40156993 C2.19693267,3.9857615 3.97369159,1.87797713 6.36603524,1.10621284 C6.5958544,0.45659968 7.24805312,0 8.00047382,0 Z" id="Combined-Shape"></path>
                    <path d="M5.0607892,16.7549219 C4.93839545,16.5173526 5.00664338,16.2106618 5.21322521,16.0699088 C5.41980704,15.9291559 5.68649443,16.0076411 5.80888818,16.2452104 C5.81472417,16.2565382 5.82799842,16.2814714 5.84817643,16.3180222 C5.88295477,16.3810204 5.92360766,16.4517535 5.96957811,16.5282179 C6.10106444,16.746924 6.24755783,16.9655682 6.40392815,17.167801 C6.81153067,17.6949509 7.20485693,18.0000265 7.49727827,18.0000265 C7.7951343,18.0000265 8.18991721,17.695135 8.597581,17.1678283 C8.75377519,16.9657935 8.89985795,16.7473555 9.03077969,16.5288602 C9.07654873,16.4524762 9.11699366,16.3818229 9.15156808,16.3189041 C9.171616,16.2824208 9.18478613,16.2575543 9.19055487,16.2462926 C9.31242891,16.0083702 9.5789439,15.9291142 9.78583276,16.0692695 C9.99272162,16.2094248 10.0616397,16.5159173 9.93976569,16.7538397 C9.90279979,16.8260045 9.83728036,16.9452372 9.7467906,17.0962556 C9.59684615,17.3464979 9.42945573,17.5967974 9.24742517,17.8322511 C8.68873254,18.5549113 8.1124178,19 7.49727827,19 C6.88662659,19 6.31302236,18.5550954 5.75412622,17.8322784 C5.57222201,17.5970228 5.40465731,17.3469293 5.25433816,17.0968978 C5.16363565,16.946029 5.0978934,16.8269421 5.0607892,16.7549219 Z" id="Oval-2"></path>
                </g>
            </g>
        </g>
    </g>
</svg>