<?xml version="1.0" encoding="UTF-8"?>
<svg width="19px" height="17px" viewBox="0 0 19 17" version="1.1" xmlns="http://www.w3.org/2000/svg" xmlns:xlink="http://www.w3.org/1999/xlink">
    <!-- Generator: Sketch 52.5 (67469) - http://www.bohemiancoding.com/sketch -->
    <title>Notification ikon</title>
    <desc>Created with Sketch.</desc>
    <defs>
        <linearGradient x1="31.6236053%" y1="92.4480915%" x2="40.2593415%" y2="-8.3309105%" id="linearGradient-1">
            <stop stop-color="#FFFFFF" offset="0%"></stop>
            <stop stop-color="#ECE6FF" offset="100%"></stop>
        </linearGradient>
        <linearGradient x1="8.44188184%" y1="23.2244712%" x2="86.4724179%" y2="100%" id="linearGradient-2">
            <stop stop-color="#3D27C7" offset="0%"></stop>
            <stop stop-color="#5D50FF" offset="100%"></stop>
        </linearGradient>
        <path d="M7.95945946,0 L7.95945946,0 C12.3553475,-8.07511539e-16 15.9189189,3.56357138 15.9189189,7.95945946 L15.9189189,12.8378378 L0,12.8378378 L-8.8817842e-16,7.95945946 C-1.42651945e-15,3.56357138 3.56357138,8.07511539e-16 7.95945946,0 Z" id="path-3"></path>
    </defs>
    <g id="Symbols" stroke="none" stroke-width="1" fill="none" fill-rule="evenodd">
        <g id="Header" transform="translate(-1381.000000, -17.000000)">
            <g id="Notification-ikon" transform="translate(1381.000000, 17.000000)">
                <path d="M8.72972973,0 L10.2702703,-4.4408921e-16 C11.1210873,-6.00381766e-16 11.8108108,0.689723494 11.8108108,1.54054054 L7.18918919,1.54054054 L7.18918919,1.54054054 C7.18918919,0.689723494 7.87891268,1.56292556e-16 8.72972973,0 Z" id="Rectangle" fill="url(#linearGradient-1)"></path>
                <g id="Path-4" transform="translate(1.540541, 1.027027)">
                    <mask id="mask-4" fill="white">
                        <use xlink:href="#path-3"></use>
                    </mask>
                    <use id="Mask" fill="url(#linearGradient-2)" xlink:href="#path-3"></use>
                    <path d="M7.94497626,-1.87299726 C4.67677235,1.03383341 3.04267039,5.91767967 3.04267039,12.7785415 L-1.85963547,12.7785415 L-1.85963547,2.36157846 L7.94497626,-3.24946738 L7.94497626,-1.87299726 Z" fill="url(#linearGradient-2)" mask="url(#mask-4)"></path>
                </g>
                <rect id="Rectangle" fill="url(#linearGradient-1)" x="0" y="13.3513514" width="19" height="3.08108108" rx="1.54054054"></rect>
            </g>
        </g>
    </g>
</svg>