<svg xmlns="http://www.w3.org/2000/svg" xmlns:xlink="http://www.w3.org/1999/xlink" width="21" height="14" viewBox="0 0 21 14">
  <defs>
    <linearGradient id="mail-b" x1="50%" x2="50%" y1="0%" y2="100%">
      <stop offset="0%" stop-color="#3D27C7"/>
      <stop offset="100%" stop-color="#5D50FF"/>
    </linearGradient>
    <path id="mail-a" d="M3,0.333333333 L17.3508772,0.333333333 C19.0077314,0.333333333 20.3508772,1.67647908 20.3508772,3.33333333 L20.3508772,10.3812642 C20.3508772,12.0381184 19.0077314,13.3812642 17.3508772,13.3812642 L3,13.3812642 C1.34314575,13.3812642 -3.9357041e-16,12.0381184 -1.33226763e-15,10.3812642 L0,3.33333333 C-2.02906125e-16,1.67647908 1.34314575,0.333333333 3,0.333333333 Z"/>
    <linearGradient id="mail-d" x1="31.624%" x2="40.259%" y1="92.448%" y2="-8.331%">
      <stop offset="0%" stop-color="#FFF"/>
      <stop offset="100%" stop-color="#ECE6FF"/>
    </linearGradient>
  </defs>
  <g fill="none" fill-rule="evenodd">
    <mask id="mail-c" fill="#fff">
      <use xlink:href="#mail-a"/>
    </mask>
    <use fill="url(#mail-b)" xlink:href="#mail-a"/>
    <polygon fill="#412CCD" points="-4.284 14.188 10.106 3.547 24.496 14.188 10.106 30.72" mask="url(#mail-c)"/>
    <polygon fill="url(#mail-d)" points="-4.284 -1.343 10.106 -17.875 24.496 -1.343 10.106 9.298" mask="url(#mail-c)"/>
  </g>
</svg>
