<?xml version="1.0" encoding="UTF-8"?>
<svg width="18px" height="13px" viewBox="0 0 18 13" version="1.1" xmlns="http://www.w3.org/2000/svg" xmlns:xlink="http://www.w3.org/1999/xlink">
    <!-- Generator: Sketch 52.2 (67145) - http://www.bohemiancoding.com/sketch -->
    <title>US Copy</title>
    <desc>Created with Sketch.</desc>
    <defs>
        <linearGradient x1="50%" y1="0%" x2="50%" y2="100%" id="linearGradient-1">
            <stop stop-color="#FFFFFF" offset="0%"></stop>
            <stop stop-color="#F0F0F0" offset="100%"></stop>
        </linearGradient>
        <linearGradient x1="50%" y1="0%" x2="50%" y2="100%" id="linearGradient-2">
            <stop stop-color="#D02F44" offset="0%"></stop>
            <stop stop-color="#B12537" offset="100%"></stop>
        </linearGradient>
        <linearGradient x1="50%" y1="0%" x2="50%" y2="100%" id="linearGradient-3">
            <stop stop-color="#46467F" offset="0%"></stop>
            <stop stop-color="#3C3C6D" offset="100%"></stop>
        </linearGradient>
    </defs>
    <g id="Desktop" stroke="none" stroke-width="1" fill="none" fill-rule="evenodd">
        <g id="Movie-page" transform="translate(-1216.000000, -502.000000)" fill-rule="nonzero">
            <g id="Searc_button-Copy-7" transform="translate(1113.000000, 491.000000)">
                <g id="US-Copy" transform="translate(103.000000, 11.000000)">
                    <rect id="FlagBackground" fill="url(#linearGradient-1)" x="0" y="0" width="18" height="12.8571429"></rect>
                    <path d="M0,0 L18,0 L18,0.857142857 L0,0.857142857 L0,0 Z M0,1.71428571 L18,1.71428571 L18,2.57142857 L0,2.57142857 L0,1.71428571 Z M0,3.42857143 L18,3.42857143 L18,4.28571429 L0,4.28571429 L0,3.42857143 Z M0,5.14285714 L18,5.14285714 L18,6 L0,6 L0,5.14285714 Z M0,6.85714286 L18,6.85714286 L18,7.71428571 L0,7.71428571 L0,6.85714286 Z M0,8.57142857 L18,8.57142857 L18,9.42857143 L0,9.42857143 L0,8.57142857 Z M0,10.2857143 L18,10.2857143 L18,11.1428571 L0,11.1428571 L0,10.2857143 Z M0,12 L18,12 L18,12.8571429 L0,12.8571429 L0,12 Z" id="Rectangle-511" fill="url(#linearGradient-2)"></path>
                    <rect id="Rectangle-511" fill="url(#linearGradient-3)" x="0" y="0" width="7.71428571" height="6"></rect>
                    <path d="M1.28571429,1.71428571 C1.04902083,1.71428571 0.857142857,1.52240775 0.857142857,1.28571429 C0.857142857,1.04902083 1.04902083,0.857142857 1.28571429,0.857142857 C1.52240775,0.857142857 1.71428571,1.04902083 1.71428571,1.28571429 C1.71428571,1.52240775 1.52240775,1.71428571 1.28571429,1.71428571 Z M3,1.71428571 C2.76330654,1.71428571 2.57142857,1.52240775 2.57142857,1.28571429 C2.57142857,1.04902083 2.76330654,0.857142857 3,0.857142857 C3.23669346,0.857142857 3.42857143,1.04902083 3.42857143,1.28571429 C3.42857143,1.52240775 3.23669346,1.71428571 3,1.71428571 Z M4.71428571,1.71428571 C4.47759225,1.71428571 4.28571429,1.52240775 4.28571429,1.28571429 C4.28571429,1.04902083 4.47759225,0.857142857 4.71428571,0.857142857 C4.95097917,0.857142857 5.14285714,1.04902083 5.14285714,1.28571429 C5.14285714,1.52240775 4.95097917,1.71428571 4.71428571,1.71428571 Z M6.42857143,1.71428571 C6.19187797,1.71428571 6,1.52240775 6,1.28571429 C6,1.04902083 6.19187797,0.857142857 6.42857143,0.857142857 C6.66526489,0.857142857 6.85714286,1.04902083 6.85714286,1.28571429 C6.85714286,1.52240775 6.66526489,1.71428571 6.42857143,1.71428571 Z M2.14285714,2.57142857 C1.90616368,2.57142857 1.71428571,2.3795506 1.71428571,2.14285714 C1.71428571,1.90616368 1.90616368,1.71428571 2.14285714,1.71428571 C2.3795506,1.71428571 2.57142857,1.90616368 2.57142857,2.14285714 C2.57142857,2.3795506 2.3795506,2.57142857 2.14285714,2.57142857 Z M3.85714286,2.57142857 C3.6204494,2.57142857 3.42857143,2.3795506 3.42857143,2.14285714 C3.42857143,1.90616368 3.6204494,1.71428571 3.85714286,1.71428571 C4.09383632,1.71428571 4.28571429,1.90616368 4.28571429,2.14285714 C4.28571429,2.3795506 4.09383632,2.57142857 3.85714286,2.57142857 Z M5.57142857,2.57142857 C5.33473511,2.57142857 5.14285714,2.3795506 5.14285714,2.14285714 C5.14285714,1.90616368 5.33473511,1.71428571 5.57142857,1.71428571 C5.80812203,1.71428571 6,1.90616368 6,2.14285714 C6,2.3795506 5.80812203,2.57142857 5.57142857,2.57142857 Z M6.42857143,3.42857143 C6.19187797,3.42857143 6,3.23669346 6,3 C6,2.76330654 6.19187797,2.57142857 6.42857143,2.57142857 C6.66526489,2.57142857 6.85714286,2.76330654 6.85714286,3 C6.85714286,3.23669346 6.66526489,3.42857143 6.42857143,3.42857143 Z M4.71428571,3.42857143 C4.47759225,3.42857143 4.28571429,3.23669346 4.28571429,3 C4.28571429,2.76330654 4.47759225,2.57142857 4.71428571,2.57142857 C4.95097917,2.57142857 5.14285714,2.76330654 5.14285714,3 C5.14285714,3.23669346 4.95097917,3.42857143 4.71428571,3.42857143 Z M3,3.42857143 C2.76330654,3.42857143 2.57142857,3.23669346 2.57142857,3 C2.57142857,2.76330654 2.76330654,2.57142857 3,2.57142857 C3.23669346,2.57142857 3.42857143,2.76330654 3.42857143,3 C3.42857143,3.23669346 3.23669346,3.42857143 3,3.42857143 Z M1.28571429,3.42857143 C1.04902083,3.42857143 0.857142857,3.23669346 0.857142857,3 C0.857142857,2.76330654 1.04902083,2.57142857 1.28571429,2.57142857 C1.52240775,2.57142857 1.71428571,2.76330654 1.71428571,3 C1.71428571,3.23669346 1.52240775,3.42857143 1.28571429,3.42857143 Z M2.14285714,4.28571429 C1.90616368,4.28571429 1.71428571,4.09383632 1.71428571,3.85714286 C1.71428571,3.6204494 1.90616368,3.42857143 2.14285714,3.42857143 C2.3795506,3.42857143 2.57142857,3.6204494 2.57142857,3.85714286 C2.57142857,4.09383632 2.3795506,4.28571429 2.14285714,4.28571429 Z M3.85714286,4.28571429 C3.6204494,4.28571429 3.42857143,4.09383632 3.42857143,3.85714286 C3.42857143,3.6204494 3.6204494,3.42857143 3.85714286,3.42857143 C4.09383632,3.42857143 4.28571429,3.6204494 4.28571429,3.85714286 C4.28571429,4.09383632 4.09383632,4.28571429 3.85714286,4.28571429 Z M5.57142857,4.28571429 C5.33473511,4.28571429 5.14285714,4.09383632 5.14285714,3.85714286 C5.14285714,3.6204494 5.33473511,3.42857143 5.57142857,3.42857143 C5.80812203,3.42857143 6,3.6204494 6,3.85714286 C6,4.09383632 5.80812203,4.28571429 5.57142857,4.28571429 Z M6.42857143,5.14285714 C6.19187797,5.14285714 6,4.95097917 6,4.71428571 C6,4.47759225 6.19187797,4.28571429 6.42857143,4.28571429 C6.66526489,4.28571429 6.85714286,4.47759225 6.85714286,4.71428571 C6.85714286,4.95097917 6.66526489,5.14285714 6.42857143,5.14285714 Z M4.71428571,5.14285714 C4.47759225,5.14285714 4.28571429,4.95097917 4.28571429,4.71428571 C4.28571429,4.47759225 4.47759225,4.28571429 4.71428571,4.28571429 C4.95097917,4.28571429 5.14285714,4.47759225 5.14285714,4.71428571 C5.14285714,4.95097917 4.95097917,5.14285714 4.71428571,5.14285714 Z M3,5.14285714 C2.76330654,5.14285714 2.57142857,4.95097917 2.57142857,4.71428571 C2.57142857,4.47759225 2.76330654,4.28571429 3,4.28571429 C3.23669346,4.28571429 3.42857143,4.47759225 3.42857143,4.71428571 C3.42857143,4.95097917 3.23669346,5.14285714 3,5.14285714 Z M1.28571429,5.14285714 C1.04902083,5.14285714 0.857142857,4.95097917 0.857142857,4.71428571 C0.857142857,4.47759225 1.04902083,4.28571429 1.28571429,4.28571429 C1.52240775,4.28571429 1.71428571,4.47759225 1.71428571,4.71428571 C1.71428571,4.95097917 1.52240775,5.14285714 1.28571429,5.14285714 Z" id="Oval-43" fill="url(#linearGradient-1)"></path>
                </g>
            </g>
        </g>
    </g>
</svg>