<?xml version="1.0" encoding="UTF-8"?>
<svg width="15px" height="12px" viewBox="0 0 15 12" version="1.1" xmlns="http://www.w3.org/2000/svg" xmlns:xlink="http://www.w3.org/1999/xlink">
    <!-- Generator: Sketch 52.2 (67145) - http://www.bohemiancoding.com/sketch -->
    <title>Shape</title>
    <desc>Created with Sketch.</desc>
    <g id="Desktop" stroke="none" stroke-width="1" fill="none" fill-rule="evenodd">
        <g id="Movie-page" transform="translate(-1260.000000, -460.000000)" fill="#FFFFFF" fill-rule="nonzero">
            <g id="baseline-subtitles-24px" transform="translate(1244.000000, 453.000000)">
                <path d="M29.5,7 L17.5,7 C16.675,7 16,7.675 16,8.5 L16,17.5 C16,18.325 16.675,19 17.5,19 L29.5,19 C30.325,19 31,18.325 31,17.5 L31,8.5 C31,7.675 30.325,7 29.5,7 Z M17.5,13 L20.5,13 L20.5,14.5 L17.5,14.5 L17.5,13 Z M25,17.5 L17.5,17.5 L17.5,16 L25,16 L25,17.5 Z M29.5,17.5 L26.5,17.5 L26.5,16 L29.5,16 L29.5,17.5 Z M29.5,14.5 L22,14.5 L22,13 L29.5,13 L29.5,14.5 Z" id="Shape"></path>
            </g>
        </g>
    </g>
</svg>