<?xml version="1.0" encoding="UTF-8"?>
<svg width="18px" height="18px" viewBox="0 0 18 18" version="1.1" xmlns="http://www.w3.org/2000/svg" xmlns:xlink="http://www.w3.org/1999/xlink">
    <!-- Generator: Sketch 52.2 (67145) - http://www.bohemiancoding.com/sketch -->
    <title>Icon_User_Avatar</title>
    <desc>Created with Sketch.</desc>
    <g id="Symbols" stroke="none" stroke-width="1" fill="none" fill-rule="evenodd">
        <g id="Header" transform="translate(-1367.000000, -17.000000)" fill="#F0F5F9">
            <g id="Icon_User_Avatar" transform="translate(1367.000000, 17.000000)">
                <g id="User-Avatar">
                    <path d="M0.83711287,17.2 L9.48209117,17.2 C9.71289585,17.2 9.9,17.3790861 9.9,17.6 C9.9,17.8209139 9.71289585,18 9.48209117,18 L0.432844845,18 C0.209975268,18 0.0263209135,17.8326022 0.0154348466,17.619538 C-0.123497885,14.9003195 0.674762303,13.0736102 2.43987295,12.2183996 C3.39115226,11.7574969 3.84033551,11.6336704 5.34542297,11.3173354 C6.33474048,11.1094035 6.72183233,10.9281092 7.10219615,10.4120989 C7.42842718,9.96952635 7.38358707,9.5164135 6.99538986,8.87562243 C6.83448876,8.61002549 6.67231613,8.39063969 6.28177469,7.89229648 C5.85205876,7.34396539 5.67124716,7.09802499 5.48422948,6.78088437 C4.92021315,5.82443742 4.96108907,5.04457265 5.65894973,4.62526284 C5.00888432,1.62078352 6.3018062,3.55271368e-16 9.40283121,0 C9.63363589,0 9.82074004,0.1790861 9.82074004,0.4 C9.82074004,0.6209139 9.63363589,0.8 9.40283121,0.8 C6.75995277,0.8 5.85708936,2.0295233 6.54500907,4.75087681 C6.59481556,4.94790716 6.48275598,5.14944863 6.28419094,5.21996362 C5.84179736,5.3770677 5.79197648,5.67520653 6.21210699,6.38765496 C6.37498003,6.66385161 6.54313839,6.89258104 6.9503979,7.41225704 C7.36132385,7.93661153 7.53514699,8.17175804 7.71844579,8.4743265 C8.25401363,9.35837996 8.33068938,10.1331945 7.7851437,10.8732944 C7.25610367,11.5910023 6.69906462,11.8518912 5.52468682,12.0987186 C4.08761261,12.4007588 3.68516624,12.5117013 2.81735656,12.9321622 C1.46725352,13.5862983 0.798780513,14.9865604 0.83711287,17.2 Z" id="Path-2" fill-rule="nonzero"></path>
                    <path d="M17.4962316,17.2 C17.7301001,17.2 17.9196879,17.3790861 17.9196879,17.6 C17.9196879,17.8209139 17.7301001,18 17.4962316,18 L8.53859058,18 C8.31276255,18 8.12667031,17.8326022 8.11563973,17.619538 C7.97486276,14.9003195 8.78371933,13.0736102 10.5722607,12.2183996 C11.5296718,11.760603 11.9244976,11.6488924 13.4128485,11.318627 C14.3315113,11.1147756 14.6934551,10.9359777 15.084745,10.4120989 C15.4153066,9.96952635 15.3698712,9.5164135 14.976521,8.87562243 C14.813484,8.61002549 14.6491586,8.39063969 14.253433,7.89229648 C13.8180129,7.34396539 13.6348011,7.09802499 13.4453009,6.78088437 C12.8712254,5.82013264 12.9156014,5.03755619 13.6319288,4.61962307 C13.0784421,1.61345849 14.4389426,5.32907052e-16 17.5765437,0 C17.8104122,0 18,0.1790861 18,0.4 C18,0.6209139 17.8104122,0.8 17.5765437,0.8 C14.8913937,0.8 13.923974,2.03995759 14.5231793,4.76355539 C14.5657801,4.95719116 14.4521766,5.15116791 14.2558813,5.21996362 C13.8076153,5.3770677 13.7571331,5.67520653 14.1828405,6.38765496 C14.3478756,6.66385161 14.5182662,6.89258104 14.9309318,7.41225704 C15.3473125,7.93661153 15.523443,8.17175804 15.709175,8.4743265 C16.2518521,9.35837996 16.3295457,10.1331945 15.7767583,10.8732944 C15.2421425,11.5890651 14.7076994,11.8530766 13.6065267,12.097427 C12.1830407,12.4132988 11.8323946,12.5125093 10.9547551,12.9321622 C9.58673036,13.5862983 8.9093838,14.9865604 8.948225,17.2 L17.4962316,17.2 Z" id="Path-2" fill-rule="nonzero" transform="translate(13.050000, 9.000000) scale(-1, 1) translate(-13.050000, -9.000000) "></path>
                </g>
            </g>
        </g>
    </g>
</svg>