<?xml version="1.0" encoding="UTF-8"?>
<svg width="22px" height="15px" viewBox="0 0 22 15" version="1.1" xmlns="http://www.w3.org/2000/svg" xmlns:xlink="http://www.w3.org/1999/xlink">
    <!-- Generator: Sketch 52.5 (67469) - http://www.bohemiancoding.com/sketch -->
    <title>Group 7</title>
    <desc>Created with Sketch.</desc>
    <defs>
        <linearGradient x1="50%" y1="0%" x2="50%" y2="100%" id="linearGradient-1">
            <stop stop-color="#3D27C7" offset="0%"></stop>
            <stop stop-color="#5D50FF" offset="100%"></stop>
        </linearGradient>
        <path d="M3,0 L19,-4.4408921e-16 C20.6568542,-7.48448398e-16 22,1.34314575 22,3 L22,11.1052632 C22,12.7621174 20.6568542,14.1052632 19,14.1052632 L3,14.1052632 C1.34314575,14.1052632 -2.41183085e-16,12.7621174 -4.4408921e-16,11.1052632 L4.4408921e-16,3 C2.41183085e-16,1.34314575 1.34314575,-1.39730022e-16 3,-4.4408921e-16 Z" id="path-2"></path>
        <linearGradient x1="70.2508315%" y1="19.5864004%" x2="6.86523699%" y2="100%" id="linearGradient-4">
            <stop stop-color="#553CF1" offset="0%"></stop>
            <stop stop-color="#392DD8" offset="100%"></stop>
        </linearGradient>
        <linearGradient x1="31.6236053%" y1="92.4480915%" x2="40.2593415%" y2="-8.3309105%" id="linearGradient-5">
            <stop stop-color="#FFFFFF" offset="0%"></stop>
            <stop stop-color="#ECE6FF" offset="100%"></stop>
        </linearGradient>
    </defs>
    <g id="Symbols" stroke="none" stroke-width="1" fill="none" fill-rule="evenodd">
        <g id="Header" transform="translate(-1339.000000, -18.000000)">
            <g id="Group-7" transform="translate(1339.000000, 18.000000)">
                <mask id="mask-3" fill="white">
                    <use xlink:href="#path-2"></use>
                </mask>
                <use id="Mask" fill="url(#linearGradient-1)" xlink:href="#path-2"></use>
                <circle id="Oval-Copy-3" fill="url(#linearGradient-4)" mask="url(#mask-3)" cx="11" cy="15.6420361" r="11"></circle>
                <circle id="Oval" fill="url(#linearGradient-5)" mask="url(#mask-3)" cx="11" cy="16.4006568" r="6.44827586"></circle>
                <circle id="Oval-Copy-2" fill="url(#linearGradient-5)" mask="url(#mask-3)" cx="11" cy="5.96059113" r="3.37766831"></circle>
            </g>
        </g>
    </g>
</svg>